<svg width="172" height="20" viewBox="0 0 172 20" fill="none" xmlns="http://www.w3.org/2000/svg">
<path fill-rule="evenodd" clip-rule="evenodd" d="M20.2412 14.9871C20.3769 14.8568 20.4546 14.6797 20.4575 14.494V1.04507e-06H26.4615V17.7367C26.4615 18.3369 26.2171 18.9126 25.7819 19.3371C25.3467 19.7615 24.7565 20 24.1411 20H18.0166C17.149 20.0006 16.2985 19.7645 15.5612 19.3184C14.8239 18.8723 14.2292 18.2339 13.8443 17.4755L7.64172 5.24483C7.57968 5.11419 7.48045 5.0037 7.35584 4.92653C7.23123 4.84936 7.0865 4.80876 6.9389 4.80958C6.83395 4.80814 6.72975 4.82705 6.63236 4.86523C6.60704 4.87516 6.5734 4.88634 6.53616 4.89872L6.53614 4.89872C6.43021 4.93393 6.29521 4.97879 6.23992 5.03198C6.16518 5.10386 6.10584 5.18952 6.06534 5.28397C6.02484 5.37842 6.00399 5.47978 6.004 5.58216V20H0V2.26333C0 1.66306 0.24447 1.08737 0.679631 0.662916C1.11479 0.238459 1.70499 1.04507e-06 2.3204 1.04507e-06H8.56765C9.43526 -0.000573213 10.2857 0.235526 11.023 0.681628C11.7603 1.12773 12.355 1.76605 12.7399 2.52448L18.9648 14.7987C19.025 14.9137 19.1157 15.0108 19.2276 15.0797C19.3395 15.1487 19.4684 15.1869 19.6007 15.1904C19.7911 15.1904 20.1056 15.1174 20.2412 14.9871ZM166.212 14.494V1.04507e-06H172V17.7367C172 18.3369 171.756 18.9126 171.32 19.3371C170.885 19.7615 170.295 20 169.68 20H163.544C162.678 19.9998 161.829 19.7633 161.094 19.3171C160.359 18.871 159.766 18.2331 159.383 17.4755L152.811 5.20131C152.752 5.08311 152.66 4.98359 152.545 4.91427C152.431 4.84495 152.298 4.80865 152.164 4.80958H152.052C151.957 4.80958 151.863 4.82787 151.775 4.86342C151.687 4.89896 151.607 4.95106 151.539 5.01674C151.472 5.08242 151.419 5.16039 151.382 5.2462C151.346 5.33201 151.327 5.42398 151.327 5.51687V20H145.538V2.26333C145.538 1.66306 145.783 1.08737 146.218 0.662915C146.653 0.238458 147.243 1.04507e-06 147.859 1.04507e-06H154.106C154.972 0.00270278 155.819 0.240271 156.554 0.686119C157.289 1.13197 157.882 1.7685 158.267 2.52448L164.839 14.7987C164.912 14.9396 165.032 15.0526 165.178 15.1198C165.324 15.1869 165.49 15.2044 165.648 15.1693C165.805 15.1343 165.947 15.0488 166.049 14.9264C166.151 14.804 166.208 14.6518 166.212 14.494ZM76.0698 13.6888C76.0756 13.8905 76.0409 14.0914 75.9676 14.2794C75.8944 14.4673 75.7842 14.6385 75.6436 14.7828C75.5031 14.927 75.335 15.0413 75.1494 15.1188C74.9638 15.1963 74.7646 15.2355 74.5636 15.2339H65.1579C64.9606 15.2354 64.765 15.1976 64.5823 15.1228C64.3996 15.048 64.2335 14.9376 64.0935 14.798C63.9535 14.6584 63.8424 14.4924 63.7665 14.3095C63.6907 14.1266 63.6517 13.9304 63.6517 13.7323V1.04507e-06H57.8846V15.4625C57.8846 16.0583 58.0014 16.6484 58.2285 17.1989C58.4556 17.7494 58.7884 18.2496 59.208 18.671C59.6276 19.0923 60.1257 19.4266 60.6739 19.6546C61.2221 19.8826 61.8097 20 62.403 20H77.3469C77.9402 20 78.5278 19.8826 79.076 19.6546C79.6242 19.4266 80.1223 19.0923 80.5419 18.671C80.9615 18.2496 81.2943 17.7494 81.5214 17.1989C81.7485 16.6484 81.8653 16.0583 81.8653 15.4625V1.04507e-06H76.0698V13.6888ZM120.731 17.7367V2.26335C120.731 1.96521 120.79 1.67 120.903 1.39469C121.017 1.11938 121.184 0.869392 121.394 0.65908C121.604 0.448768 121.854 0.28228 122.128 0.169179C122.403 0.0560785 122.696 -0.00140617 122.993 2.72054e-05H142.231V5L126.52 5.00001V7.49999L140.577 7.5V12.5L126.52 12.5V15L142.231 15V20H122.993C122.696 20.0014 122.403 19.9439 122.128 19.8308C121.854 19.7177 121.604 19.5512 121.394 19.3409C121.184 19.1306 121.017 18.8806 120.903 18.6053C120.79 18.33 120.731 18.0348 120.731 17.7367ZM115.161 0.00554692L109.123 0.00554692C108.273 -0.0368584 107.431 0.181918 106.708 0.632753C105.985 1.08359 105.415 1.74509 105.076 2.52921L101.201 13.7878L97.4784 2.52921C97.1399 1.74416 96.5709 1.08178 95.8475 0.630753C95.1241 0.17973 94.2809 -0.0384073 93.4308 0.00554692H87.4352C87.1387 0.00411401 86.8448 0.0615802 86.5704 0.174645C86.2961 0.287709 86.0466 0.454143 85.8365 0.664388C85.6263 0.874632 85.4595 1.12454 85.3457 1.39977C85.2319 1.67499 85.1733 1.9701 85.1733 2.26814V19.9991H90.9618V5.50975C90.9618 5.32511 91.0348 5.14803 91.1646 5.01747C91.2945 4.88691 91.4707 4.81356 91.6544 4.81356C91.7824 4.81241 91.9082 4.84751 92.0173 4.91484C92.1264 4.98217 92.2144 5.07902 92.2713 5.19429L97.5217 18.7699C97.7033 19.1482 97.99 19.4656 98.3473 19.6838C98.7045 19.9019 99.1169 20.0114 99.5346 19.9991H103.019C103.44 20.0095 103.854 19.8967 104.211 19.6746C104.569 19.4525 104.854 19.1305 105.032 18.7481L110.325 5.19429C110.384 5.08059 110.473 4.98511 110.581 4.91805C110.69 4.85099 110.815 4.81487 110.942 4.81356C111.126 4.81356 111.302 4.88691 111.432 5.01747C111.562 5.14803 111.635 5.32511 111.635 5.50975V19.9991H117.423V2.26814C117.42 1.66707 117.181 1.09159 116.757 0.667581C116.333 0.243572 115.759 0.00554004 115.161 0.00554692ZM57.058 20H50.2519L48.3042 15.876H36.7272L34.7576 20H28.1157L36.6725 2.4592C36.9968 1.73802 37.5211 1.12368 38.1838 0.688141C38.8466 0.252602 39.6205 0.0139008 40.4148 1.04507e-06H44.726C45.5188 0.0146427 46.2909 0.253776 46.9517 0.68935C47.6126 1.12492 48.1349 1.73888 48.4573 2.4592L57.058 20ZM41.7388 5.28836L39.0142 11.0664H45.9625L43.2051 5.28836C43.1432 5.1461 43.0408 5.02495 42.9105 4.93984C42.7803 4.85474 42.6278 4.80939 42.4719 4.80939C42.3161 4.80939 42.1636 4.85474 42.0333 4.93984C41.9031 5.02495 41.8007 5.1461 41.7388 5.28836Z" fill="#FF6611"/>
</svg>
